# xmcd CD database file
#
# Track frame offsets:
#	150
#	18657
#	32425
#	49267
#	68367
#	87835
#	106342
#	120110
#	136950
#	156052
#
# Disc length: 2340 seconds
#
# Revision: 0
# Processed by: cddbd v1.5.1PL0 Copyright (c) Steve Scherf et al.
# Submitted via: CDex 1.51
#
DISCID=6f09220a
DTITLE=Faith Hill - Kareoke c and s Lyrics
DYEAR=2000
DGENRE=Country
TTITLE0=Breath  - Instrumentals Only
TTITLE1=This Kiss  - Instrumentals Only
TTITLE2=I Got My Baby - Instrumentals Only
TTITLE3=Let's Make Love  - Instrumentals Only
TTITLE4=Secret of Life  - Instrumentals Only
TTITLE5=Breath  - Vocals and Instrumentals
TTITLE6=This Kiss  - Vocals and Instrumentals
TTITLE7=I Got My Baby  - Vocals and Instrumentals
TTITLE8=Let's Make Life  - Vocals and Instrumentals
TTITLE9=Secret of Life  - Vocals and Instrumentals
EXTD=YEAR: 2000
EXTT0=
EXTT1=
EXTT2=
EXTT3=
EXTT4=
EXTT5=
EXTT6=
EXTT7=
EXTT8=
EXTT9=
PLAYORDER=
